<svg width="102.933594" height="9.502441" viewBox="0 0 102.934 9.50244" fill="none" xmlns="http://www.w3.org/2000/svg" xmlns:xlink="http://www.w3.org/1999/xlink">
	<desc>
			Created with Pixso.
	</desc>
	<defs/>
	<path id="SKILLBOX ® 2023" d="M1 4.14Q1.72 4.79 3.28 5.24Q4.53 5.61 5.01 5.98Q5.18 6.11 5.28 6.27Q5.49 6.59 5.49 7.03Q5.49 7.41 5.32 7.7Q5.2 7.93 4.97 8.1Q4.46 8.49 3.49 8.49Q2.46 8.49 1.84 8.01Q1.58 7.81 1.43 7.54Q1.22 7.17 1.22 6.69L0 6.69Q0 7.17 0.16 7.59Q0.26 7.87 0.44 8.13Q0.45 8.13 0.45 8.14Q0.9 8.76 1.72 9.13Q1.87 9.2 2.03 9.25Q2.72 9.49 3.49 9.49Q4.96 9.49 5.83 8.82Q6.26 8.49 6.47 8.06Q6.71 7.6 6.71 7.02Q6.71 6.33 6.41 5.81Q6.4 5.8 6.4 5.79Q6.08 5.27 5.43 4.88Q4.78 4.49 3.63 4.17Q2.48 3.84 2 3.45Q1.7 3.21 1.59 2.9Q1.52 2.71 1.52 2.5Q1.52 2.06 1.71 1.74Q1.83 1.55 2.02 1.39Q2.53 1 3.43 1Q4.4 1 4.93 1.48Q5.08 1.61 5.18 1.76Q5.47 2.18 5.47 2.79L6.69 2.79Q6.69 2.4 6.59 2.04Q6.48 1.7 6.28 1.38Q6.19 1.23 6.08 1.1Q5.7 0.65 5.13 0.36Q4.38 0 3.43 0Q2.13 0 1.28 0.62Q1.22 0.66 1.16 0.71Q0.68 1.1 0.47 1.6Q0.29 2.02 0.29 2.52Q0.29 2.99 0.46 3.39Q0.64 3.8 1 4.14ZM48.69 7.41Q49.15 6.4 49.15 5.04L49.15 4.46Q49.15 3.11 48.69 2.09Q48.32 1.26 47.69 0.75Q47.55 0.63 47.39 0.53Q47.24 0.43 47.08 0.36Q46.34 0 45.43 0Q44.61 0 43.93 0.3Q43.7 0.4 43.49 0.54Q43.35 0.63 43.21 0.74Q42.56 1.26 42.18 2.1Q41.72 3.12 41.72 4.46L41.72 5.12Q41.73 6.43 42.2 7.42Q42.57 8.21 43.17 8.71Q43.33 8.84 43.51 8.95Q43.7 9.08 43.9 9.17Q44.6 9.49 45.44 9.49Q46.41 9.49 47.16 9.1Q47.28 9.03 47.4 8.96Q47.54 8.87 47.67 8.76Q48.31 8.25 48.69 7.41ZM75.34 9.36L81.4 9.36L81.4 8.41L76.76 8.41L79.23 5.72Q80.97 3.84 80.97 2.47Q80.97 1.73 80.65 1.18Q80.48 0.9 80.22 0.67Q80.17 0.62 80.11 0.58Q79.38 0 78.19 0Q77.05 0 76.29 0.53Q76.13 0.64 75.99 0.78Q75.72 1.03 75.55 1.33Q75.16 1.98 75.16 2.85L76.34 2.85Q76.34 2.05 76.73 1.57Q76.77 1.51 76.82 1.46Q76.9 1.39 76.97 1.32Q77.44 0.96 78.19 0.96Q78.7 0.96 79.08 1.19Q79.23 1.29 79.35 1.42Q79.47 1.55 79.56 1.7Q79.79 2.09 79.79 2.61Q79.79 2.75 79.77 2.88Q79.72 3.28 79.52 3.65Q79.25 4.16 78.54 4.97L75.34 8.52L75.34 9.36ZM87.73 8.49Q88.44 7.49 88.44 5.42L88.44 3.9Q88.42 1.91 87.71 0.95Q87.55 0.73 87.34 0.56Q86.66 0 85.52 0Q84.4 0 83.72 0.54Q83.49 0.73 83.31 0.99Q82.6 1.98 82.6 4.01L82.6 5.58Q82.63 7.53 83.34 8.51Q83.53 8.77 83.78 8.97Q84.45 9.49 85.53 9.49Q86.62 9.49 87.29 8.96Q87.54 8.76 87.73 8.49ZM89.94 9.36L96 9.36L96 8.41L91.36 8.41L93.83 5.72Q95.57 3.84 95.57 2.47Q95.57 1.73 95.25 1.18Q95.08 0.9 94.82 0.67Q94.77 0.62 94.71 0.58Q93.98 0 92.79 0Q91.65 0 90.89 0.53Q90.73 0.64 90.59 0.78Q90.32 1.03 90.15 1.33Q89.76 1.98 89.76 2.85L90.94 2.85Q90.94 2.05 91.33 1.57Q91.37 1.51 91.42 1.46Q91.49 1.39 91.57 1.32Q92.04 0.96 92.79 0.96Q93.3 0.96 93.68 1.19Q93.83 1.29 93.95 1.42Q94.07 1.55 94.16 1.7Q94.39 2.09 94.39 2.61Q94.39 2.75 94.37 2.88Q94.32 3.28 94.12 3.65Q93.85 4.16 93.14 4.97L89.94 8.52L89.94 9.36ZM99.83 4.17L98.95 4.17L98.95 5.13L99.83 5.13Q100.76 5.14 101.26 5.57Q101.37 5.67 101.45 5.78Q101.75 6.18 101.75 6.81Q101.75 7.57 101.38 8.01Q101.34 8.05 101.3 8.09Q101.28 8.11 101.26 8.13Q100.81 8.53 100 8.53Q99.3 8.53 98.85 8.2Q98.79 8.15 98.73 8.09Q98.58 7.96 98.47 7.79Q98.25 7.43 98.25 6.93L97.07 6.93Q97.07 7.62 97.36 8.15Q97.56 8.5 97.89 8.79Q98 8.88 98.12 8.97Q98.88 9.49 100 9.49Q101.08 9.49 101.82 9Q101.97 8.89 102.12 8.76Q102.37 8.54 102.54 8.26Q102.93 7.65 102.93 6.79Q102.93 6.1 102.63 5.59Q102.57 5.5 102.51 5.42Q102.45 5.34 102.38 5.26Q101.98 4.83 101.34 4.62Q101.8 4.43 102.12 4.11Q102.28 3.96 102.4 3.78Q102.73 3.3 102.78 2.79Q102.79 2.7 102.79 2.61Q102.79 1.64 102.33 1Q102.2 0.83 102.05 0.69Q101.99 0.64 101.93 0.59Q101.21 0 100 0Q99.07 0 98.38 0.4Q98.16 0.54 97.96 0.72Q97.57 1.07 97.37 1.5Q97.15 1.97 97.15 2.55L98.33 2.55Q98.33 2.04 98.55 1.67Q98.65 1.52 98.78 1.39Q98.86 1.32 98.95 1.26Q99.37 0.96 100 0.96Q100.8 0.96 101.21 1.36Q101.62 1.77 101.62 2.58Q101.62 3.08 101.39 3.44Q101.29 3.6 101.14 3.73Q101.13 3.74 101.12 3.75Q100.65 4.16 99.83 4.17ZM9.49 6.24L10.62 5.07L13.9 9.36L15.36 9.36L11.43 4.2L15.07 0.12L13.6 0.12L9.49 4.69L9.49 0.12L8.27 0.12L8.27 9.36L9.49 9.36L9.49 6.24ZM16.51 9.36L17.73 9.36L17.73 0.12L16.51 0.12L16.51 9.36ZM25.56 8.37L21.18 8.37L21.18 0.12L19.96 0.12L19.96 9.36L25.56 9.36L25.56 8.37ZM32.56 8.37L28.18 8.37L28.18 0.12L26.95 0.12L26.95 9.36L32.56 9.36L32.56 8.37ZM33.95 0.12L33.95 9.36L37.15 9.36Q38.63 9.36 39.43 8.65Q39.67 8.45 39.83 8.2Q40.24 7.58 40.24 6.7Q40.24 6.08 39.99 5.59Q39.91 5.44 39.8 5.3Q39.65 5.09 39.46 4.93Q39.11 4.64 38.62 4.5Q39.18 4.26 39.53 3.84Q39.58 3.79 39.62 3.73Q39.77 3.54 39.85 3.32Q39.99 2.98 39.99 2.58Q39.99 1.63 39.53 1.05Q39.4 0.88 39.23 0.74Q38.47 0.12 36.97 0.12L33.95 0.12ZM56.07 0.12L53.85 3.66L51.63 0.12L50.2 0.12L53.12 4.7L50.13 9.36L51.57 9.36L53.85 5.76L56.13 9.36L57.57 9.36L54.58 4.7L57.5 0.12L56.07 0.12ZM86.84 1.64Q87.26 2.32 87.26 3.82L87.26 5.74Q87.24 7.19 86.82 7.86Q86.65 8.13 86.41 8.29Q86.05 8.53 85.53 8.53Q85.04 8.53 84.69 8.31Q84.41 8.14 84.21 7.82Q83.78 7.1 83.78 5.61L83.78 3.73Q83.79 2.32 84.2 1.64Q84.36 1.39 84.58 1.23Q84.95 0.96 85.52 0.96Q86.09 0.96 86.47 1.23Q86.69 1.39 86.84 1.64ZM47.28 1.92Q47.94 2.8 47.94 4.44L47.94 5.13Q47.92 6.74 47.27 7.6Q47.02 7.93 46.69 8.13Q46.17 8.46 45.44 8.46Q44.8 8.46 44.31 8.18Q43.9 7.96 43.6 7.55Q42.93 6.63 42.93 5.04L42.93 4.36Q42.95 2.8 43.61 1.92Q43.9 1.53 44.29 1.32Q44.78 1.04 45.43 1.04Q46.14 1.04 46.66 1.35Q47.01 1.57 47.28 1.92ZM37.01 4.06L35.17 4.06L35.17 1.12L36.97 1.12Q37.88 1.12 38.32 1.47Q38.39 1.52 38.44 1.58Q38.77 1.93 38.77 2.58Q38.77 3.01 38.58 3.33Q38.47 3.52 38.29 3.66Q38.28 3.67 38.26 3.68Q37.79 4.06 37.01 4.06ZM35.17 8.37L35.17 5.04L37.2 5.04Q38.18 5.04 38.63 5.53Q39.01 5.95 39.01 6.71Q39.01 7.28 38.75 7.66Q38.65 7.81 38.52 7.93Q38.49 7.95 38.47 7.97Q37.98 8.37 37.18 8.37L35.17 8.37Z" fill="#2E2B44" fill-opacity="1.000000" fill-rule="evenodd"/>
	<path id="SKILLBOX ® 2023" d="M61.93 3.24Q61.71 3.95 61.71 4.74Q61.71 5.49 61.91 6.18Q62.05 6.65 62.28 7.09Q62.57 7.62 62.96 8.05Q63.38 8.5 63.91 8.84Q64.41 9.15 64.94 9.31Q65.55 9.5 66.21 9.5Q66.89 9.5 67.5 9.31Q68.04 9.14 68.52 8.83Q69.08 8.48 69.5 8.01Q69.87 7.59 70.14 7.08Q70.39 6.6 70.53 6.1Q70.71 5.44 70.71 4.74Q70.71 3.95 70.49 3.24Q70.35 2.78 70.12 2.36Q69.78 1.73 69.29 1.25Q68.93 0.9 68.48 0.63Q67.94 0.3 67.36 0.15Q66.81 0 66.21 0Q65.63 0 65.08 0.14Q64.49 0.3 63.94 0.63Q63.49 0.9 63.12 1.26Q62.64 1.74 62.3 2.36Q62.07 2.78 61.93 3.24ZM62.63 6.03Q62.44 5.42 62.44 4.74Q62.44 4.1 62.61 3.51Q62.74 3.11 62.94 2.73Q63.25 2.16 63.71 1.74Q63.99 1.48 64.32 1.28Q64.78 1.01 65.27 0.88Q65.72 0.76 66.21 0.76Q66.72 0.76 67.19 0.89Q67.67 1.02 68.11 1.29Q68.49 1.51 68.79 1.81Q69.2 2.21 69.49 2.73Q69.66 3.05 69.77 3.38Q69.98 4.02 69.98 4.74Q69.98 5.47 69.76 6.13Q69.65 6.45 69.49 6.75Q69.2 7.27 68.8 7.67Q68.49 7.97 68.11 8.21Q67.66 8.48 67.17 8.62Q66.71 8.74 66.21 8.74Q65.72 8.74 65.26 8.62Q64.77 8.49 64.33 8.22Q64.01 8.03 63.75 7.78Q63.27 7.35 62.94 6.76Q62.75 6.41 62.63 6.03ZM65.28 7.36L65.28 5.21L66.4 5.21Q66.84 5.23 67.05 5.46Q67.19 5.61 67.23 5.85Q67.25 5.96 67.25 6.54Q67.25 7.13 67.34 7.36L68.26 7.36L68.26 7.26Q68.15 7.02 68.15 6.47L68.15 6.08Q68.15 5.47 67.84 5.12Q67.66 4.91 67.37 4.79Q67.89 4.52 68.08 4.11Q68.18 3.88 68.18 3.59Q68.18 3.04 67.92 2.67Q67.81 2.51 67.65 2.38Q67.11 1.97 66.14 1.97L64.39 1.97L64.39 7.36L65.28 7.36ZM66.27 4.4L65.28 4.4L65.28 2.78L66.16 2.78Q66.79 2.78 67.04 2.97Q67.06 2.98 67.07 3Q67.29 3.19 67.29 3.63Q67.29 3.79 67.22 3.92Q67.15 4.07 67.01 4.18Q66.73 4.39 66.27 4.4Z" fill="#3F2AFF" fill-opacity="1.000000" fill-rule="evenodd"/>
</svg>
