<svg width="24.000000" height="24.000000" viewBox="0 0 24 24" fill="none" xmlns="http://www.w3.org/2000/svg" xmlns:xlink="http://www.w3.org/1999/xlink">
	<desc>
			Created with Pixso.
	</desc>
	<defs>
		<clipPath id="clip53_85">
			<rect id="mdi_access_time" rx="0.000000" width="23.000000" height="23.000000" transform="translate(0.500000 0.500000)" fill="white" fill-opacity="0"/>
		</clipPath>
	</defs>
	<rect id="mdi_access_time" rx="0.000000" width="23.000000" height="23.000000" transform="translate(0.500000 0.500000)" fill="#FFFFFF" fill-opacity="0"/>
	<g clip-path="url(#clip53_85)">
		<path id="Vector" d="M11.99 2C6.47 2 2 6.47 2 12C2 17.52 6.47 22 11.99 22C17.52 22 22 17.52 22 12C22 6.47 17.52 2 11.99 2ZM12 20C7.58 20 4 16.41 4 12C4 7.58 7.58 4 12 4C16.42 4 20 7.58 20 12C20 16.41 16.42 20 12 20Z" fill="#FFFFFF" fill-opacity="1.000000" fill-rule="nonzero"/>
		<path id="Vector" d="M12.5 7L11 7L11 13L16.25 16.14L17 14.91L12.5 12.25L12.5 7Z" fill="#FFFFFF" fill-opacity="1.000000" fill-rule="nonzero"/>
	</g>
</svg>
